<svg fill="none" viewBox="0 0 124 34" xmlns="http://www.w3.org/2000/svg"><path clip-rule="evenodd" d="m0 0h124v34h-124z" fill="#cd0aae" fill-rule="evenodd"/><path d="m53.5866 13.6743c-1.2159 0-2.3124.3586-3.2496.9717v-5.60949h-2.5911v10.34529c0 3.148 2.6217 5.68 5.8285 5.68 3.2067 0 5.856-2.5197 5.856-5.7106 0-3.191-2.5911-5.68-5.8438-5.68zm-13.4548.1716c-2.8851.2851-5.2435 2.7189-5.2435 5.6095 0 3.0622 2.6799 5.6247 5.8132 5.6247 3.1332 0 5.8131-2.5625 5.8131-5.6247 0-1.3028-.4839-2.5044-1.2588-3.4485l-5.7396-6.95506h-3.3538zm-20.0643 6.2654-2.3737-6.0385h-1.8162l-2.3859 6.0385-2.3859-6.0385h-2.82699l4.17459 10.6181h1.8162l2.5054-6.3237 2.5176 6.3237h1.8162l4.1593-10.6181h-2.8116l-2.386 6.0385zm46.392-6.4248c-3.2373 0-5.856 2.4614-5.856 5.5666 0 3.1051 2.2971 5.824 5.7121 5.824 2.049 0 3.7029-.9595 4.8759-2.6055l-2.0214-1.6031c-.585 1.0299-1.7121 1.6307-2.8392 1.6307-1.464 0-2.9005-1.0146-3.0169-2.5043h8.4778v-.7725c0-3.2492-2.196-5.5359-5.3292-5.5359zm33.0934 0c-3.2373 0-5.8438 2.4614-5.8438 5.7076 0 3.0468 2.2971 5.6799 5.6968 5.6799 2.0491 0 3.7031-.9594 4.8761-2.6055l-1.786-1.4744c-.631.9441-1.773 1.502-3.133 1.502-1.3598 0-2.8269-1.0146-2.9433-2.5043h8.4503v-.8859c0-3.1327-2.181-5.4224-5.314-5.4224zm9.0781 3.4914c0-.6591.922-1.1863 2.123-1.1863 1.2 0 2.532.5855 3.396 1.5296l1.565-1.8729c-1.494-1.2874-3.001-1.9587-4.891-1.9587-2.358 0-4.787 1.0575-4.787 3.4913 0 2.9917 2.634 3.2063 4.787 3.378 1.201.0858 2.27.1716 2.27.9441 0 .8307-1.216 1.2169-2.285 1.2169-1.244 0-2.591-.515-3.575-1.6737l-1.669 1.7319c1.333 1.5878 3.265 2.2898 5.155 2.2898 2.374 0 4.965-1.1004 4.965-3.6201 0-2.8476-2.665-3.1204-4.714-3.3197-1.289-.1287-2.343-.2421-2.343-.9441zm-32.9035-.6866v-2.4185h-2.5911v10.6027h2.5911v-4.4783c.3522-2.5044 2.3859-3.5067 4.7443-3.5067v-2.6177h-.2634c-1.9908 0-3.4426.7142-4.4809 2.4185zm8.2297 0v-2.4185h-2.5911v10.6027h2.5911v-4.4783c.3522-2.8201 2.8423-3.5067 4.7443-3.5067v-2.6177h-.2787c-1.9633 0-3.4426.7019-4.4656 2.4185zm-52.9923 8.1842h2.5911v-15.62366h-2.5911zm9.7519-2.1457c-1.7856 0-3.2374-1.4008-3.2374-3.148s1.4487-3.1634 3.2221-3.1634c1.7733 0 3.2649 1.4009 3.2649 3.1634s-1.464 3.148-3.2496 3.148zm12.8576 0c-1.7581 0-3.2374-1.3732-3.2374-3.1633s1.3905-3.1481 3.2496-3.1481 3.2496 1.4162 3.2496 3.1481-1.4793 3.1633-3.2649 3.1633zm-27.0904 2.1457h2.5911v-10.6027h-2.5911zm63.3323 0h2.5911v-10.6027h-2.5911zm-62.0735-15.7524c-1.0536 0-1.9326.85827-1.9326 1.9464 0 1.0882.9219 1.8453 1.9326 1.8453 1.1271 0 1.9755-.9165 1.9755-1.9035 0-.98701-.8943-1.8882-1.9755-1.8882zm63.3599 0c-1.0536 0-1.9479.85827-1.9479 1.9311 0 1.0729.8637 1.8453 1.9908 1.8453s1.905-.7571 1.905-1.8024c0-1.04523-.879-1.974-1.9479-1.974zm5.6233 8.9567c.4257-1.0452 1.3476-1.6583 2.7105-1.6583 1.3625 0 2.1805.6437 2.5325 1.6583zm-33.1087 0c.4379-1.0452 1.3476-1.6583 2.6952-1.6583s2.2267.6437 2.5758 1.6583z" fill="#fff"/></svg>