<svg viewBox="0 0 326 126" xmlns="http://www.w3.org/2000/svg"><g fill="#fff"><path d="m97.374 124.973c.0584-2.969.0585-5.985.0585-8.906 0-2.922-.0001-5.916-.0585-8.884h12.877l.01 1.12c.05.445-.077.893-.352 1.246-.341.272-.776.398-1.209.352h-7.861v.461s-.023 1.234-.023 2.292v1.916h3.895c4.823 0 6.978 1.665 6.978 5.398 0 3.601-1.973 5.005-7.042 5.005zm3.46-2.327h3.246c2.596 0 3.914-1.046 3.914-3.108 0-1.685-1.451-2.652-3.983-2.652h-3.202z"/><path d="m11.097 124.965c.0828-2.899.0991-6.464.0991-8.98 0-1.855-.0002-3.956-.0456-6.004l-.0097-.458h-7.24436v.464c-.02272 2.039-.02259 4.14-.02259 5.995 0 2.774 0 6.203.07627 8.979h-3.554124c.069782-2.562.100635-5.318.100635-8.882 0-2.413-.011379-5.589-.100635-8.906h14.237104c-.0763 2.678-.0763 5.98-.0763 8.906 0 2.751 0 6.151.0763 8.882z"/><path d="m85.8048 124.965c.0454-3.032.0844-5.974.0844-8.687 0-2.417-.0308-4.979-.0454-5.971v-.462h-.4625c-1.1003 0-2.7767.016-4.3022.06v-2.73h13.124v2.733c-1.4606-.042-3.2328-.058-4.3477-.058h-.4608v.46c-.0227 1.299-.0456 5.202-.0456 6.39 0 2.758.0197 5.537.0602 8.268z"/><path d="m25.7158 125.232c-5.6669 0-8.1938-2.844-8.1938-9.225 0-6.261 2.5577-9.178 8.0494-9.178 5.6069 0 8.2196 2.947 8.2196 9.275 0 6.141-2.6419 9.128-8.0752 9.128zm-.1006-15.743c-3.1402 0-4.6641 2.136-4.6641 6.529s1.5481 6.558 4.7354 6.558c3.1029 0 4.6754-2.186 4.6754-6.492 0-4.433-1.553-6.588-4.7467-6.588"/><path d="m122.79 125.187c-5.668 0-8.195-2.845-8.195-9.224 0-6.261 2.556-9.177 8.051-9.177 5.607 0 8.216 2.947 8.216 9.274 0 6.143-2.638 9.129-8.073 9.129m-.102-15.742c-3.095 0-4.664 2.197-4.664 6.527 0 4.414 1.548 6.558 4.735 6.558 3.103 0 4.676-2.186 4.676-6.491 0-4.434-1.554-6.589-4.747-6.589"/><path d="m132.112 124.971 5.174-17.794h10.896c-.077 2.677-.077 5.973-.077 8.893 0 2.749.001 6.149.078 8.882h-3.531c.076-2.797.076-6.216.076-8.981 0-1.818 0-3.588-.022-5.627v-.462h-4.97l-3.333 11.861c-.821 2.435-1.623 3.23-3.278 3.23z"/><path d="m50.2563 126c0-.263.0194-1.441.0194-1.441h-.2744c-5.5728-.044-8.0589-2.679-8.0589-8.548 0-5.803 2.5591-8.505 8.0492-8.505h.2663v-.266s0-.213-.0082-1.083h3.4308l-.0197 1.349h.276c5.469.011 8.0169 2.713 8.0169 8.505 0 5.856-2.4732 8.491-8.0201 8.546h-.2743s.0163 1.187.0212 1.441zm-.2257-16.066c-3.0834 0-4.6575 2.049-4.6575 6.084 0 4.076 1.5239 6.074 4.6544 6.11h.2726v-.274c.0113-1.948.0128-3.895.0128-5.792s.0001-3.895-.0128-5.859v-.271zm3.6108.271c-.0113 1.97-.0129 3.932-.0129 5.858 0 1.927-.0001 3.846.0129 5.791v.275h.276c3.1045-.05 4.6137-2.048 4.6137-6.106 0-4.015-1.5514-6.062-4.6153-6.083h-.2712z"/><path d="m74.9963 107.177-3.9499 10.753-3.3432-9.286c-.1492-.423-.4247-.79-.7892-1.051-.3646-.261-.8006-.404-1.249-.41h-2.1308l4.5082 11.548h2.7118l-2.2915 6.24h1.5888c1.5806 0 2.2266-.639 3.2847-3.246l5.1655-14.542z"/><path d="m162.208 107.177-3.951 10.753-3.344-9.286c-.149-.423-.424-.79-.789-1.051-.364-.261-.801-.404-1.249-.41h-2.131l4.507 11.548h2.713l-2.291 6.24h1.59c1.578 0 2.223-.639 3.283-3.246l5.167-14.542z"/><path d="m78.5197 80.5929c0-6.2967-3.7471-9.2292-11.7931-9.2292h-5.8909v-2.676c0-1.7202.0356-3.7228.0356-3.7228v-.3132h12.3613c2.1259 0 2.994-.8958 2.981-3.0477l-.0194-2.2622h-21.8548c.1038 4.9724.104 10.0177.104 14.9008 0 4.8832-.0002 9.9676-.104 14.94h12.2687c8.4567 0 11.9051-2.4879 11.9051-8.5882m-12.7959 3.9144h-4.8394l-.0406-8.4891h4.7793c3.8397 0 6.0417 1.4119 6.0417 3.8754 0 3.1061-1.9473 4.6153-5.9297 4.6153"/><path d="m160.859 88.9002c-.063-1.7851-.099-5.3554-.099-7.9909v-.3229h7.528c6.777 0 9.934-3.4777 9.934-10.946 0-7.3223-3.533-10.5874-11.457-10.5874h-12.608c.037 4.9172.071 9.7694.071 14.9414 0 5.1363-.034 9.9838-.071 14.901zm-.099-25.1296h4.853c4.019 0 5.892 1.8695 5.892 5.8828 0 3.9824-1.902 5.9201-5.818 5.9201h-4.966z"/><path d="m94.5614 89.7018c9.1416 0 13.5876-5.0048 13.5876-15.3002 0-10.602-4.393-15.5403-13.8213-15.5403-9.2421 0-13.546 4.888-13.546 15.3797 0 10.6929 4.2488 15.4608 13.7797 15.4608zm-.1606-25.6279c4.9026 0 7.2852 3.3641 7.2852 10.2839 0 6.8159-2.3453 10.133-7.1683 10.133-4.9578 0-7.2656-3.2457-7.2656-10.232 0-6.8516 2.3386-10.1849 7.1487-10.1849z"/><path d="m208.699 73.6309c0-10.602-4.393-15.5403-13.823-15.5403-9.241 0-13.548 4.888-13.548 15.3796 0 10.6929 4.254 15.4608 13.783 15.4608 9.143 0 13.588-5.0065 13.588-15.3018m-20.902-.1444c0-6.8516 2.338-10.1833 7.15-10.1833 4.901 0 7.287 3.3642 7.287 10.2823 0 6.816-2.345 10.133-7.168 10.133-4.957 0-7.269-3.2457-7.269-10.232z"/><path d="m225.66 89.4001c7.382 0 11.491-3.6352 12.549-11.1067h-6.742c-.741 3.911-2.714 5.8942-5.859 5.8942-4.294 0-6.297-3.2458-6.297-10.2321 0-6.8517 2.028-10.1833 6.199-10.1833.947-.0692 1.893.1297 2.732.5741.838.4443 1.534 1.116 2.008 1.938.215.3847.409.7807.582 1.1863h6.777c-.011-.3847-.071-.7665-.179-1.136-1.535-5.305-5.346-7.775-11.991-7.775-8.731 0-12.798 4.888-12.798 15.3813 0 10.6913 4.017 15.4592 13.019 15.4592z"/><path d="m266.991 78.2934h-6.737c-.744 3.911-2.714 5.8941-5.862 5.8941-4.294 0-6.293-3.2457-6.293-10.2336 0-6.8517 2.025-10.1818 6.197-10.1818.946-.0691 1.893.1299 2.731.5743.838.4443 1.534 1.116 2.008 1.9379.215.3843.409.7804.581 1.1863h6.777c-.012-.3845-.071-.7661-.177-1.136-1.537-5.305-5.346-7.775-11.996-7.775-8.729 0-12.795 4.8864-12.795 15.3813 0 10.6913 4.015 15.4592 13.019 15.4592 7.38 0 11.491-3.6352 12.547-11.1067z"/><path d="m37.8236 78.441-3.9337 10.7107h3.2213c2.9698 0 4.0912-1.4605 5.7627-5.5793l8.6204-24.2631h-6.6455l-6.316 17.2021-5.2224-14.5212c-.2721-.7757-.7763-1.4489-1.4439-1.9285-.6677-.4795-1.4667-.7422-2.2887-.7524h-4.1203l7.4651 19.1317z"/><path d="m295.377 59.0366h-3.481l-13.113 14.9952-2.747 4.698-.151-.0145c.184-1.579.278-3.167.284-4.7566 0-4.148.06-6.7364.105-11.1116.016-1.4362.03-2.7377.038-3.8088h-6.096c.07 4.8572.106 9.7614.106 14.5812 0 4.6381-.033 9.5667-.068 14.7825v.4771h4.282l12.483-14.7273 2.524-4.3087.147.0147c-.162 1.3583-.243 2.8075-.266 4.234-.01 5.3018-.045 10.3862-.102 14.7873h6.057c-.078-4.7874-.143-9.8036-.143-17.7782 0-3.6952.066-7.9698.141-12.0643z"/><path d="m319.044 88.8807h6.059c-.078-4.7874-.145-9.8036-.145-17.7782 0-3.6952.068-7.9697.145-12.0642h-3.481l-13.111 14.9951-2.749 4.7063-.151-.0163c.183-1.579.277-3.167.282-4.7566 0-4.148.06-6.7364.107-11.1116.015-1.4362.029-2.7377.041-3.8087h-6.099c.071 4.8571.107 9.7613.107 14.5812 0 4.638-.032 9.5666-.068 14.7824v.4772h4.284l12.483-14.7289 2.522-4.3103.151.0161c-.16 1.406-.248 2.8191-.266 4.2341-.01 5.3018-.042 10.3861-.104 14.7873"/><path d="m6.751 89.1518v-12.9161h4.1221l5.2108 10.6166c.3158.666.8087 1.2325 1.4246 1.6375s1.3313.6328 2.0679.6588h5.4625l-7.7004-14.2485-3.4079-1.4606v-.3246l3.4079-1.4103 6.5968-12.3903h-4.5536c-.7348.0039-1.4542.2122-2.0773.6017s-1.1255.9448-1.4509 1.6036l-4.9432 9.7371-1.75752-.0357h-2.40019v-11.9117h-6.601711c.077896 5.2905.144415 10.409.144415 14.9416 0 4.5683-.066519 9.6527-.144415 14.9009z"/><path d="m128.552 74.9324-3.473-1.4962v-.3246l3.483-1.4443 6.571-12.358h-4.554c-.735.0038-1.455.2121-2.078.6016-.624.3895-1.126.9448-1.452 1.6039l-4.941 9.737-1.758-.0357h-2.4v-11.9117h-6.602c.078 5.2905.145 10.409.145 14.9416 0 4.5683-.067 9.6527-.145 14.9009h6.602v-12.9162h4.122l5.211 10.6167c.315.6658.808 1.2321 1.424 1.6371.615.405 1.33.633 2.067.6592h5.462z"/><path d="m10.5177 40.7392c-.3781.2038-.81043.2849-1.23673.232h-8.18077c-.879582 0-1.234826-.3846-1.0546906-1.1538l6.6080506-28.2374c.33589-1.4116.84959-2.77488 1.52874-4.05714.68846-1.31781 1.60054-2.50607 2.6956-3.51183 1.1683-1.06155 2.5267-1.89296 4.0036-2.4505 1.7243-.643175 3.5542-.956416 5.3943-.923402h17.5267c.4609 0 .7433.069794.8455.20449.1023.134696.0779.524192-.0762 1.176572l-1.5223 6.51241c-.0549.37457-.2174.72519-.4675 1.00943-.2673.19442-.5956.28602-.9249.25802h-14.2292c-.6539-.01823-1.3049.09206-1.9164.32455-.4561.1707-.8718.4343-1.2205.7741-.298.2996-.5377.6517-.7074 1.0387-.1615.3716-.2903.7565-.3847 1.1505l-.8325 3.5703h15.1508c.4609 0 .74.0795.8389.2288.099.1493.07.5599-.0826 1.2107l-1.4037 5.9931c-.2061.8812-.6719 1.3275-1.4022 1.3275h-15.1541l-3.3738 14.4043c-.0502.3402-.1948.6596-.4172.9218"/><path d="m73.1527 20.7473c-.6823 3.0112-1.7173 5.9313-3.0834 8.7001-1.2022 2.4501-2.8227 4.6716-4.7889 6.5644-1.9304 1.8232-4.2112 3.2349-6.704 4.1496-2.807 1-5.7709 1.4881-8.7505 1.4411-2.66.0858-5.3079-.3943-7.7685-1.4086-1.944-.8381-3.573-2.2696-4.6542-4.0896-1.1029-2.0073-1.6955-4.2549-1.7252-6.5449-.0691-2.9307.2586-5.8572.9738-8.7001.6789-2.9899 1.7535-5.8758 3.1954-8.5816 1.2982-2.4554 2.9856-4.68433 4.9967-6.60008 1.9283-1.81499 4.187-3.24293 6.6536-4.20637 2.6286-1.000086 5.4221-1.4956328 8.2343-1.4606016 2.6602-.0914765 5.3077.4073576 7.7523 1.4606016 1.9566.891 3.6036 2.34467 4.7306 4.17556 1.1453 1.99392 1.7767 4.24142 1.8372 6.54009.0986 2.8806-.2064 5.7609-.9057 8.5572m-11.4831.0568c.3033-1.4156.514-2.8494.6311-4.2924.1222-1.1868.0428-2.3857-.2351-3.5459-.2302-.9403-.762-1.7794-1.5141-2.3889-.9115-.64661-2.0166-.96265-3.1322-.89578-1.1059-.00268-2.1917.29641-3.1403.86498-1.0121.6069-1.9006 1.3991-2.6191 2.3353-.8113 1.0527-1.4864 2.2038-2.0091 3.4258-.5817 1.3185-1.0381 2.6888-1.3632 4.0928-.3809 1.5707-.6398 3.1686-.7741 4.7793-.1215 1.2098-.0158 2.4317.3116 3.6027.2612.9151.8232 1.7155 1.5953 2.272.9229.5867 2.0059.8704 3.0979.8114 1.1862.0204 2.3545-.2904 3.3738-.8975 1.0153-.6225 1.8934-1.4452 2.5805-2.418.78-1.0951 1.4164-2.2857 1.8939-3.5427.5329-1.3703.9667-2.7771 1.2981-4.2096"/><path d="m147.68 18.9622c.896.4046 1.69 1.0039 2.326 1.7543.575.7007 1.016 1.5025 1.298 2.3645.277.8751.411 1.7891.398 2.7069-.006.9407-.119 1.8777-.336 2.7929-.417 1.8108-1.18 3.5244-2.245 5.047-1.067 1.5177-2.384 2.843-3.895 3.9192-1.541 1.105-3.247 1.96-5.055 2.5332-1.865.5983-3.812.8995-5.771.8926h-14.978c-1.575 0-2.524-.2937-2.845-.8926-.334-.9401-.337-1.9657-.01-2.9081l7.661-32.72787c.191-1.05422.661-2.03811 1.36-2.84968.456-.36691.981-.640214 1.543-.804237s1.15-.215574 1.732-.151646h14.982c1.588-.015973 3.17.178321 4.707.577763 1.293.32379 2.488.95573 3.484 1.84189.93.87056 1.589 1.99152 1.897 3.22785.342 1.56113.298 3.18223-.128 4.72243-.401 1.6022-1.164 3.0912-2.23 4.3525-1.043 1.3264-2.338 2.4333-3.81 3.257zm-15.149-3.4567h6.004c.787-.0083 1.561-.2064 2.255-.5777.399-.2416.741-.5685.999-.9573.259-.3888.428-.83.497-1.292.118-.3354.152-.6946.099-1.0463-.053-.3516-.191-.685-.403-.9709-.252-.247-.555-.4366-.887-.5556-.333-.11909-.687-.1648-1.039-.13406h-6.238zm7.77 12.3336c.142-.455.184-.9356.121-1.4082s-.228-.9258-.484-1.3279c-.319-.3819-.728-.6792-1.189-.8655-.462-.1862-.962-.2557-1.457-.2023h-6.76l-1.765 7.5479h6.763c.675.0166 1.346-.0998 1.976-.3425.525-.2181 1.004-.5305 1.416-.9218.368-.3517.677-.7611.913-1.2122.205-.4027.361-.8281.466-1.2675z"/><path d="m182.081 40.9711h-17.804c-1.846.0909-3.688-.2422-5.386-.9737-1.174-.5478-2.152-1.4428-2.801-2.5641-.588-1.0885-.888-2.3089-.873-3.5459-.002-1.2999.148-2.5956.446-3.8607l4.312-18.4355c.337-1.4118.852-2.77504 1.532-4.05711.689-1.31724 1.6-2.50538 2.694-3.51183 1.17-1.05976 2.528-1.89045 4.004-2.44887 1.726-.64275 3.558-.955419 5.4-.921766h16.995c.464 0 .741.069756.845.206075s.075.527431-.073 1.176571l-1.519 6.51573c-.057.37375-.222.72278-.474 1.00452-.265.19545-.593.28774-.921.25966h-13.715c-.655-.01853-1.306.09177-1.918.32462-.457.1723-.872.4375-1.22.7789-.298.2984-.538.6495-.708 1.0354-.159.3725-.288.7573-.385 1.1506l-.57 2.4197h15.448c.46 0 .739.0795.84.2288.09.4044.06.8266-.088 1.2139l-1.399 5.9898c-.209.8818-.678 1.3227-1.407 1.3227h-15.441l-1.01 4.3216c-.16.5623-.21 1.1504-.146 1.7316.043.3667.22.7044.498.9477.29.2222.635.3619.998.4041.452.0586.908.0863 1.364.0828h14.636c.463 0 .74.0697.846.2061.105.1363.079.5274-.072 1.1765l-1.526 6.5173c-.206.8812-.679 1.3227-1.405 1.3227"/><path d="m225.2 9.79971h-9.852l-7.015 29.96089c-.054.3487-.198.6773-.419.9526-.376.222-.815.3133-1.248.2597h-8.181c-.884 0-1.229-.4036-1.037-1.2107l7.011-29.96091h-9.625c-.807 0-1.106-.44082-.898-1.32257l1.505-6.45407c.046-.44186.236-.85655.539-1.181427.306-.159035.652-.229288.996-.202856h30.368c.314-.038702.631.033024.898.202856.144.136318.137.527417-.015 1.181427l-1.509 6.45407c-.038.37207-.216.71573-.498.96133-.282.24561-.647.37472-1.021.36124"/><path d="m89.3827 19.1359-4.9268 20.6263c.0005.2011-.0468.3995-.1379.5788-.091.1793-.2234.3344-.3861.4526-.1627.1181-.351.196-.5497.2272s-.402.0147-.5931-.0479h-8.1806c-.8861 0-1.2301-.4025-1.0386-1.2107l8.2521-34.56648c.2012-1.36334.8178-2.63155 1.7656-3.63193 1.036-.700484 2.2802-1.025719 3.5264-.921761h2.9941c.4947-.00484.9892.023911 1.48.086025.3824.049875.7529.167459 1.0939.347276.3469.19108.6477.45586.8812.77571.3171.43428.5932.89715.8245 1.38264l5.2968 12.33362 2.8175 7.0285h.404l4.948-20.73991c.057-.34947.205-.67783.428-.952566.373-.222305.81-.3137 1.24-.25966h8.184c.881 0 1.23.404086 1.034 1.210646l-8.247 34.56649c-.259 1.1957-.802 2.3116-1.583 3.2538-.486.4738-1.069.8355-1.71 1.0598-.641.2242-1.322.3056-1.998.2385h-2.995c-.485.0047-.97-.024-1.451-.086-.393-.0448-.7751-.1608-1.1266-.3424-.3527-.1959-.6624-.4608-.9104-.779-.3271-.4224-.5946-.8876-.7952-1.3826l-5.2336-12.0967-2.9066-7.1405z"/></g></svg>